<svg version="1.1" xmlns="http://www.w3.org/2000/svg" viewBox="0 0 178.99993896484375 149.00001525878906" width="178.99993896484375" height="149.00001525878906">
<rect x="0" y="0" width="178.99993896484375" height="149.00001525878906" fill="#ffffff00"></rect><g transform="translate(10 15.999984741210938) rotate(0 79.49996948242188 58.500022888183594)" stroke="none" fill="#000000"><path d="M -0.78,-3.14 Q -0.78,-3.14 6.13,-4.78 13.05,-6.43 19.34,-7.13 25.63,-7.84 29.72,-8.16 33.81,-8.49 37.44,-8.46 41.06,-8.43 45.82,-7.69 50.59,-6.96 55.37,-5.43 60.15,-3.89 66.65,-0.26 73.15,3.36 78.42,6.62 83.70,9.88 89.47,14.21 95.25,18.54 102.13,25.67 109.00,32.80 113.63,38.13 118.25,43.45 121.73,48.71 125.22,53.96 128.45,60.30 131.69,66.63 133.67,71.99 135.64,77.36 137.35,83.42 139.06,89.47 140.36,94.93 141.66,100.39 142.63,103.80 143.60,107.21 144.68,109.61 145.76,112.01 146.36,109.06 146.96,106.11 148.38,103.19 149.79,100.28 150.61,97.21 151.43,94.14 152.58,90.14 153.73,86.14 154.05,83.16 154.37,80.18 154.43,77.51 154.50,74.85 154.34,71.85 154.17,68.84 154.08,67.70 153.99,66.56 154.08,65.96 154.16,65.37 154.39,64.81 154.61,64.26 154.97,63.77 155.32,63.28 155.78,62.89 156.24,62.51 156.78,62.24 157.32,61.97 157.90,61.84 158.49,61.71 159.09,61.73 159.69,61.74 160.27,61.90 160.85,62.05 161.38,62.35 161.90,62.64 162.34,63.05 162.79,63.46 163.12,63.96 163.44,64.46 163.64,65.03 163.84,65.60 163.90,66.19 163.96,66.79 163.93,71.52 163.89,76.24 163.60,81.92 163.30,87.60 162.79,92.71 162.28,97.82 161.70,102.58 161.12,107.33 160.74,110.60 160.36,113.88 160.00,116.04 159.65,118.20 158.13,121.32 156.61,124.44 154.28,125.50 151.96,126.56 148.49,125.52 145.03,124.49 143.00,122.80 140.96,121.12 138.02,117.50 135.08,113.89 132.66,110.54 130.24,107.19 127.46,103.84 124.68,100.49 122.31,98.36 119.95,96.22 117.77,94.53 115.60,92.85 113.65,91.24 111.71,89.63 108.81,87.53 105.92,85.44 105.39,84.87 104.85,84.31 104.53,83.61 104.20,82.90 104.12,82.13 104.03,81.36 104.20,80.61 104.36,79.85 104.76,79.18 105.16,78.52 105.75,78.02 106.34,77.51 107.06,77.23 107.78,76.94 108.56,76.90 109.33,76.85 110.08,77.06 110.83,77.27 111.47,77.70 112.11,78.14 112.58,78.76 113.05,79.37 113.30,80.11 113.55,80.84 113.55,81.62 113.55,82.39 113.30,83.13 113.05,83.86 112.58,84.48 112.11,85.10 111.47,85.53 110.83,85.97 110.08,86.18 109.34,86.38 108.56,86.34 107.79,86.30 107.07,86.01 106.35,85.73 105.76,85.22 105.17,84.72 104.77,84.06 104.37,83.39 104.20,82.64 104.03,81.88 104.12,81.11 104.20,80.34 104.52,79.64 104.85,78.93 105.38,78.37 105.92,77.81 106.60,77.44 107.29,77.08 108.05,76.95 108.82,76.83 109.58,76.95 110.35,77.08 111.03,77.44 111.72,77.80 111.72,77.80 111.71,77.80 114.65,80.50 117.58,83.21 119.23,84.88 120.87,86.55 123.07,88.53 125.27,90.50 127.79,92.92 130.32,95.33 133.62,98.63 136.93,101.93 139.36,104.77 141.80,107.60 144.87,110.41 147.95,113.22 149.14,115.50 150.33,117.79 151.66,115.29 152.99,112.79 153.54,109.76 154.08,106.72 154.32,102.05 154.56,97.38 154.63,92.49 154.69,87.60 154.39,81.92 154.10,76.24 154.04,71.40 153.99,66.56 154.08,65.97 154.16,65.37 154.39,64.81 154.61,64.26 154.97,63.77 155.32,63.28 155.78,62.89 156.24,62.51 156.78,62.24 157.32,61.97 157.90,61.84 158.49,61.71 159.09,61.73 159.69,61.74 160.27,61.90 160.85,62.05 161.38,62.35 161.90,62.64 162.34,63.05 162.78,63.46 163.11,63.96 163.44,64.46 163.64,65.03 163.84,65.60 163.90,66.19 163.96,66.79 163.84,67.93 163.73,69.06 163.36,72.22 162.99,75.37 162.71,78.28 162.43,81.20 161.95,84.56 161.47,87.93 160.73,92.09 159.99,96.26 159.06,100.24 158.14,104.22 156.81,107.05 155.48,109.89 154.23,112.66 152.98,115.43 150.13,118.20 147.27,120.96 144.81,120.45 142.36,119.94 140.92,117.10 139.48,114.25 138.70,111.42 137.92,108.59 137.22,105.10 136.52,101.61 135.25,96.26 133.97,90.91 132.32,85.05 130.67,79.19 128.81,74.12 126.95,69.04 123.86,62.98 120.76,56.91 117.48,51.94 114.19,46.98 109.65,41.77 105.10,36.57 98.53,29.75 91.96,22.93 86.37,18.78 80.79,14.64 75.58,11.49 70.37,8.34 64.38,5.01 58.38,1.69 54.06,0.38 49.74,-0.92 45.25,-1.47 40.77,-2.02 37.52,-2.30 34.27,-2.58 30.30,-2.28 26.34,-1.98 20.44,-1.22 14.54,-0.46 7.66,1.33 0.78,3.14 0.39,3.19 0.01,3.23 -0.37,3.19 -0.76,3.14 -1.13,3.00 -1.49,2.87 -1.81,2.65 -2.13,2.43 -2.39,2.13 -2.65,1.84 -2.84,1.50 -3.02,1.15 -3.11,0.77 -3.21,0.40 -3.21,0.01 -3.21,-0.37 -3.12,-0.75 -3.03,-1.13 -2.85,-1.48 -2.67,-1.83 -2.41,-2.12 -2.15,-2.41 -1.83,-2.64 -1.51,-2.86 -1.14,-3.00 -0.78,-3.14 -0.78,-3.14 L -0.78,-3.14 Z"></path></g></svg>
